<svg viewBox="0 0 213 34" fill="none" xmlns="http://www.w3.org/2000/svg">
<path d="M60.7286 21.0212L64.2959 9.35398H68.9956L63.3616 25.977H58.2655L54.585 14.7345L50.9045 25.977H45.8084L40.2026 9.35398H44.959L48.5263 20.9646L52.2351 9.35398H56.9632L60.7286 21.0212ZM85.2749 17.623C85.2769 18.1246 85.2486 18.6258 85.1899 19.1239H73.4123C73.8652 21.531 75.5639 22.5788 77.659 22.5788C79.2063 22.5547 80.6973 21.9942 81.8775 20.9929L84.4821 23.8814C82.5853 25.6089 80.1788 26.4301 77.4042 26.4301C72.3081 26.4301 68.7691 22.9752 68.7691 17.708C68.7691 12.4407 72.1949 8.9292 77.1777 8.9292C81.9907 8.90089 85.2466 12.4407 85.2749 17.623ZM73.4406 16.0655H80.8016C80.3769 13.9416 79.1029 12.7522 77.1777 12.7522C75.0543 12.7522 73.8086 14.0266 73.4123 16.0655H73.4406ZM104.612 17.623C104.612 22.6071 101.158 26.4018 96.5712 26.4018C94.3063 26.4018 92.7775 25.5239 91.6733 24.2212V32.8301H87.2284V9.32567H91.6167V11.1947C92.6925 9.8354 94.278 8.9292 96.5712 8.9292C101.158 8.90089 104.612 12.6389 104.612 17.623ZM91.4468 17.623C91.4468 20.2283 93.2021 22.2106 95.7219 22.2106C98.3549 22.2106 100.025 20.2 100.025 17.623C100.025 15.046 98.3832 13.0354 95.7219 13.0354C93.1738 13.0354 91.4468 15.0177 91.4468 17.623ZM111.831 3.8885C111.831 4.65082 111.528 5.38192 110.99 5.92096C110.451 6.46 109.72 6.76283 108.958 6.76283C108.195 6.76283 107.465 6.46 106.926 5.92096C106.387 5.38192 106.084 4.65082 106.084 3.8885C106.084 3.12993 106.385 2.40243 106.921 1.86605C107.458 1.32966 108.185 1.02832 108.943 1.02832C109.702 1.02832 110.429 1.32966 110.965 1.86605C111.502 2.40243 111.803 3.12993 111.803 3.8885H111.831ZM111.18 25.9204H106.735V9.32567H111.208L111.18 25.9204ZM118.683 15.2442L124.911 9.35398H130.404L122.335 17.1416L130.432 25.9204H124.94L118.626 19.2089V25.9487H114.124V1.22655H118.626V15.2442H118.683Z" fill="#0E2A47"/>
<path fill-rule="evenodd" clip-rule="evenodd" d="M26.3585 13.46L26.4435 14.0264C26.5035 14.4959 26.5319 14.969 26.5284 15.4423V16.3769C26.5161 16.9656 26.4594 17.5525 26.3585 18.1326C26.2607 18.6321 26.1282 19.1241 25.9622 19.6052L25.3959 20.0016L25.3393 20.0583C24.663 20.5168 23.9532 20.9238 23.2159 21.276L22.9328 21.3892C20.7884 22.339 18.4691 22.8297 16.1238 22.8297C13.7786 22.8297 11.4593 22.339 9.31488 21.3892L9.03176 21.276C8.29442 20.9239 7.49969 20.4886 6.82345 20.03L6.25721 19.6052C6.10139 19.1328 5.97842 18.6503 5.88916 18.1609C5.78456 17.5718 5.72775 16.9752 5.71929 16.3769V15.4423C5.71783 14.9785 5.7462 14.515 5.80423 14.0547L5.88916 13.46C5.99187 12.9403 6.13383 12.4291 6.31384 11.9308C6.56797 11.2167 6.9003 10.5329 7.30475 9.8919C8.41664 8.12061 10.0357 6.72495 11.9512 5.88643C13.8668 5.0479 15.9903 4.8053 18.0456 5.19019C20.1009 5.57508 21.9928 6.56963 23.4754 8.04452C24.958 9.51941 25.9626 11.4064 26.3585 13.46ZM24.3767 18.1892C24.5277 17.5201 24.8112 15.7729 24.5466 14.4512L24.2635 14.253L21.5455 12.1574C21.0359 11.7892 20.2149 11.6193 19.8468 12.1574C19.5955 12.5248 18.1689 14.0282 17.1453 15.1069C16.67 15.6077 16.2816 16.017 16.138 16.1786C15.9311 16.3719 15.6657 16.4908 15.3837 16.5164C15.1017 16.5421 14.8192 16.473 14.5809 16.3202C13.9267 15.8931 13.311 15.4098 12.7406 14.876C12.0611 14.253 11.6647 14.168 10.7588 14.5928L7.9276 15.8388L7.64449 15.9804V16.1503C7.64402 16.8363 7.71999 17.5201 7.87098 18.1892L7.95592 18.2459L8.94683 18.8689C9.82759 19.3612 10.7575 19.7599 11.7214 20.0583C14.5789 20.9508 17.6405 20.9508 20.498 20.0583C21.4619 19.7599 22.3918 19.3612 23.2725 18.8689C23.6406 18.6707 23.9803 18.4724 24.2918 18.2459L24.3767 18.1892ZM10.4801 12.0481C9.84876 11.1011 9.97502 9.3965 11.4902 8.38638C13.0054 7.37625 14.5206 7.75505 15.2151 8.51264C15.9095 9.27023 15.8464 10.9117 14.5206 12.1112C13.1948 13.3107 11.1114 12.9951 10.4801 12.0481Z" fill="#1273EB"/>
<path d="M31.9358 12.0154C31.596 10.4862 30.6617 9.18356 29.1046 8.73046C28.9745 8.68605 28.8422 8.64824 28.7082 8.61719C27.9335 7.09197 26.8768 5.72747 25.594 4.59595C23.9805 3.15119 22.0583 2.09432 19.9742 1.50603C17.8901 0.917745 15.6991 0.813603 13.5686 1.20156C11.4381 1.58951 9.42443 2.45931 7.6813 3.74452C5.93817 5.02973 4.5117 6.69638 3.51082 8.61719C2.7302 8.77797 2.0138 9.16408 1.45023 9.72778C0.886667 10.2915 0.500647 11.0081 0.339912 11.7889C0.108829 12.8972 -0.00504442 14.0267 0.000171346 15.1588V16.2349C0.000171346 17.4526 0.198353 18.7269 0.991081 19.6614C1.34619 20.1175 2.08461 20.599 2.60485 20.8508C2.85975 21.6597 3.18173 22.4459 3.56745 23.2013C3.12285 23.7586 2.71614 24.3452 2.35004 24.957C2.74831 25.6381 3.19291 26.2909 3.68069 26.911C5.1515 28.8154 7.03915 30.3572 9.19864 31.418C11.3581 32.4789 13.732 33.0305 16.1378 33.0305C18.5437 33.0305 20.9176 32.4789 23.077 31.418C25.2365 30.3572 27.1242 28.8154 28.595 26.911C29.0838 26.2818 29.5284 25.6194 29.9256 24.9287C29.5483 24.3264 29.1322 23.7494 28.6799 23.2013C29.065 22.4457 29.387 21.6595 29.6425 20.8508C29.6425 20.7942 30.0672 20.6809 30.1238 20.6243C30.6079 20.354 31.0318 19.9878 31.3695 19.5482C32.3605 18.2738 32.2755 16.6313 32.2755 15.1588C32.282 14.1123 32.1776 13.0682 31.9641 12.0437L31.9358 12.0154ZM30.3503 16.1783C30.3503 16.5464 30.3503 16.9145 30.2937 17.2544C30.2768 17.5428 30.1971 17.824 30.0602 18.0784C29.9233 18.3327 29.7324 18.5541 29.501 18.7269C29.0952 19.0335 28.5929 19.1842 28.0854 19.1517L27.9438 19.7181C27.7304 20.4976 27.4461 21.2559 27.0945 21.9836L26.5282 23.003L26.1602 23.5694C26.1602 23.5411 26.1602 23.626 26.1602 23.5694C26.6289 24.0386 27.0641 24.5401 27.4625 25.0703C26.1827 26.8932 24.4829 28.3812 22.5068 29.4084C20.5308 30.4356 18.3365 30.9719 16.1095 30.9719C13.8825 30.9719 11.6883 30.4356 9.71222 29.4084C7.73616 28.3812 6.03638 26.8932 4.75654 25.0703C5.13937 24.5618 5.58384 24.0227 6.03056 23.5694C5.15599 22.2679 4.52302 20.7344 4.16199 19.2083V19.1517C3.65479 19.1817 3.15333 19.0313 2.74641 18.7269C2.38674 18.4615 2.12733 18.0823 2.0103 17.6508C1.9046 17.158 1.8665 16.6531 1.89706 16.1499C1.86557 14.8882 1.96042 13.6264 2.18017 12.3836C2.24528 12.0695 2.34993 11.7651 2.4916 11.4774C2.56806 11.3419 2.66339 11.2179 2.77472 11.1092C2.87705 11.0024 2.991 10.9075 3.11446 10.826C3.36864 10.6507 3.65887 10.5346 3.96381 10.4862C4.22744 10.4451 4.49651 10.4547 4.75654 10.5145C5.63061 8.43299 7.05978 6.63174 8.88794 5.30757C10.7161 3.98339 12.8729 3.18722 15.1228 3.00601C17.3726 2.82481 19.629 3.26555 21.6455 4.28009C23.6619 5.29463 25.3608 6.84394 26.5565 8.75878C26.9032 9.31003 27.2061 9.88761 27.4625 10.4862C27.9213 10.3792 28.4028 10.4301 28.8291 10.6304C29.2555 10.8308 29.6019 11.1691 29.8124 11.5906C30.0335 12.1128 30.1674 12.6676 30.2088 13.2331C30.326 14.2102 30.3733 15.1944 30.3503 16.1783Z" fill="#1273EB"/>
<path d="M144.569 22.1691C144.596 22.7065 144.512 23.2439 144.323 23.7478C144.134 24.2517 143.845 24.7116 143.471 25.099C143.098 25.4864 142.648 25.7931 142.152 26.0002C141.655 26.2072 141.121 26.3102 140.583 26.3028C140.029 26.3224 139.478 26.2126 138.974 25.9819C138.47 25.7512 138.027 25.4062 137.679 24.9741V26.1552H136.4V14H137.679V19.364C138.027 18.9319 138.47 18.5869 138.974 18.3562C139.478 18.1255 140.029 18.0157 140.583 18.0353C141.121 18.0279 141.655 18.1309 142.152 18.338C142.648 18.545 143.098 18.8517 143.471 19.2391C143.845 19.6265 144.134 20.0864 144.323 20.5903C144.512 21.0942 144.596 21.6316 144.569 22.1691ZM137.581 22.1691C137.6 22.729 137.784 23.2709 138.109 23.7271C138.434 24.1833 138.887 24.5338 139.409 24.7348C139.932 24.9359 140.503 24.9785 141.05 24.8575C141.597 24.7365 142.096 24.4572 142.486 24.0544C142.875 23.6516 143.137 23.1431 143.24 22.5923C143.342 22.0415 143.28 21.4727 143.062 20.9568C142.843 20.441 142.477 20.0009 142.01 19.6914C141.543 19.3819 140.995 19.2167 140.435 19.2164C140.052 19.214 139.673 19.2896 139.32 19.4386C138.967 19.5877 138.648 19.807 138.383 20.0833C138.118 20.3596 137.912 20.6871 137.777 21.0457C137.642 21.4042 137.582 21.7865 137.601 22.1691H137.581Z" fill="#869FB2"/>
<path d="M147.03 29.6H145.652L148.604 24.482L144.914 18.2322H146.341L149.293 23.2517L152.098 18.2322H153.476L147.03 29.6Z" fill="#869FB2"/>
<path d="M166.488 20.8897H159.992V26.2045H158.614V14.3938H166.783V15.6733H159.992V19.6102H166.488V20.8897Z" fill="#869FB2"/>
<path d="M173.229 18.2813L172.934 19.5116C172.505 19.2996 172.035 19.1822 171.556 19.1671C170.326 19.1671 169.391 20.1513 169.391 21.6769V26.1551H168.161V18.1829H169.391V19.3148C169.64 18.915 169.989 18.5869 170.403 18.3626C170.817 18.1383 171.282 18.0255 171.753 18.0353C172.257 18.0081 172.761 18.0921 173.229 18.2813Z" fill="#869FB2"/>
<path d="M181.478 22.1691C181.486 22.3346 181.469 22.5005 181.428 22.6612H175.031C175.059 23.3783 175.37 24.0551 175.895 24.5438C176.421 25.0325 177.119 25.2934 177.836 25.2694C178.766 25.2676 179.662 24.9163 180.346 24.2852L181.035 25.1218C180.595 25.5358 180.076 25.858 179.51 26.0692C178.944 26.2804 178.341 26.3766 177.737 26.352C175.375 26.352 173.702 24.6789 173.702 22.2183C173.702 19.7577 175.375 18.0846 177.688 18.0846C179.922 18.0353 181.478 19.7085 181.478 22.1691ZM175.08 21.5785H180.198C180.05 20.1022 179.066 19.118 177.688 19.118C177.023 19.1228 176.385 19.3792 175.9 19.8356C175.417 20.2921 175.124 20.9148 175.08 21.5785Z" fill="#869FB2"/>
<path d="M190.503 22.1691C190.511 22.3346 190.495 22.5005 190.454 22.6612H184.056C184.084 23.3783 184.395 24.0551 184.921 24.5438C185.446 25.0325 186.144 25.2934 186.861 25.2694C187.792 25.2676 188.688 24.9163 189.371 24.2852L190.06 25.1218C189.62 25.5358 189.101 25.858 188.535 26.0692C187.97 26.2804 187.367 26.3766 186.763 26.352C184.401 26.352 182.728 24.6789 182.728 22.2183C182.728 19.7577 184.401 18.0846 186.714 18.0846C188.928 18.0353 190.503 19.7085 190.503 22.1691ZM184.105 21.5785H189.223C189.076 20.1022 188.092 19.118 186.714 19.118C186.051 19.1307 185.416 19.3897 184.935 19.8446C184.452 20.2995 184.157 20.9176 184.105 21.5785Z" fill="#869FB2"/>
<path d="M200.178 22.1692C200.205 22.7067 200.121 23.244 199.932 23.7479C199.743 24.2518 199.453 24.7117 199.08 25.0991C198.706 25.4866 198.257 25.7932 197.761 26.0003C197.264 26.2073 196.73 26.3103 196.192 26.3029C195.638 26.3226 195.087 26.2127 194.583 25.982C194.079 25.7514 193.636 25.4063 193.288 24.9742V29.5509H192.009V18.1831H193.288V19.3641C193.636 18.9321 194.079 18.587 194.583 18.3563C195.087 18.1256 195.638 18.0158 196.192 18.0354C196.73 18.0281 197.264 18.1311 197.761 18.3381C198.257 18.5451 198.706 18.8519 199.08 19.2392C199.453 19.6266 199.743 20.0865 199.932 20.5904C200.121 21.0944 200.205 21.6317 200.178 22.1692ZM193.19 22.1692C193.209 22.7291 193.393 23.271 193.718 23.7272C194.043 24.1834 194.495 24.5339 195.018 24.735C195.541 24.936 196.112 24.9787 196.659 24.8576C197.206 24.7367 197.705 24.4574 198.095 24.0545C198.484 23.6517 198.746 23.1432 198.849 22.5924C198.951 22.0416 198.889 21.4728 198.671 20.957C198.452 20.4411 198.086 20.001 197.619 19.6915C197.152 19.3821 196.604 19.2169 196.044 19.2165C195.661 19.2141 195.282 19.2897 194.929 19.4387C194.576 19.5878 194.257 19.8071 193.992 20.0835C193.727 20.3597 193.521 20.6872 193.386 21.0458C193.251 21.4044 193.191 21.7866 193.21 22.1692H193.19Z" fill="#869FB2"/>
<path d="M203.131 15.3778C203.131 15.553 203.078 15.7243 202.981 15.8699C202.884 16.0156 202.746 16.1292 202.584 16.1962C202.422 16.2632 202.244 16.2808 202.072 16.2466C201.9 16.2124 201.742 16.128 201.618 16.0042C201.494 15.8803 201.41 15.7224 201.376 15.5506C201.342 15.3788 201.359 15.2007 201.426 15.0389C201.493 14.877 201.607 14.7387 201.753 14.6413C201.898 14.544 202.07 14.492 202.245 14.492C202.363 14.4832 202.482 14.5001 202.594 14.5415C202.705 14.5829 202.807 14.6478 202.89 14.7319C202.975 14.816 203.04 14.9172 203.081 15.0287C203.123 15.1401 203.139 15.2593 203.131 15.3778ZM202.885 26.1551H201.605V18.1829H202.885V26.1551Z" fill="#869FB2"/>
<path d="M206.693 21.4309H207.333L210.433 18.183H211.988L208.347 21.923L212.038 26.1552H210.463L207.313 22.5627H206.674V26.1552H205.394V14H206.674V21.4309H206.693Z" fill="#869FB2"/>
</svg>
